<?xml version="1.0" encoding="UTF-8"?>
<svg id="Capa_1" xmlns="http://www.w3.org/2000/svg" version="1.1" viewBox="0 0 611 308">
  <!-- Generator: Adobe Illustrator 29.0.0, SVG Export Plug-In . SVG Version: 2.1.0 Build 186)  -->
  <defs>
    <style>
      .st0 {
        fill: #d32421;
      }

      .st1 {
        fill: #141f78;
      }
    </style>
  </defs>
  <path class="st1" d="M88.1,82.3c-2.4,1.2-5.6,4-7.1,6.2-3,4.5-29.3,49.8-31.1,53.7-1,2.3-.1,4.1,8.7,19.4,5.4,9.3,11.3,19.6,13,22.9,6.6,12.1,11.8,18.9,16.1,21.3,3.8,2.1,5.1,2.2,19.1,2l14.9-.3-15.1-26.5c-15.7-27.4-21-34.5-26.6-35.6-3.5-.8-3.1-2,1-2.9,5.9-1.3,8.2-4.6,31.9-45.9,5-8.8,9.1-16.1,9.1-16.3s-6.6-.3-14.7-.3c-13.3,0-15.2.3-19.2,2.3Z"/>
  <path class="st1" d="M314,88.6c0,.3-1.8,9.6-4,20.7-12,61.5-17.1,89.1-16.5,90.5.5,1.3,4.1,1.4,30.8.9,16.6-.3,31.7-1.1,33.6-1.6,3.8-1.2,8.6-5.3,10.6-9.1,1.7-3.3,7.8-31,10.1-45.8,2.2-13.6,1.2-18.3-4.4-21.5-3.7-2.2-15.8-3.4-27.9-2.9l-7.2.4-.7,3.4c-.6,3.5.9,8.9,3,10.1.6.4,4.5,1.2,8.6,1.8l7.5,1.1-.2,3.9c-.4,6.2-7.3,39.8-8.5,41.2-1.2,1.5-30.8,1.9-30.8.5s3.3-18.1,7.4-39.3c9.6-49.8,9-46.1,7.2-49.8-.9-1.7-2.5-3.5-3.5-4.1-2-1-15.1-1.4-15.1-.4Z"/>
  <path class="st1" d="M549.2,90c-8.8,5.4-9.4,16.4-1.3,23.3,5.8,4.9,16.2,3,20.6-3.7,2.2-3.3,2.2-10.3.1-14.4-3.5-6.8-12.7-9.2-19.4-5.2ZM561.9,91.4c5.8,3,7.8,10.4,4.6,16.6-2.1,4-5.3,6-9.8,6s-9.1-2.2-11.1-6.4-2-6.9-.1-10.6c3.3-6.4,10.2-8.8,16.4-5.6Z"/>
  <path class="st1" d="M550,102c0,6.4.3,8,1.5,8s1.5-1,1.5-3,.3-3,3-3,3,.3,3,3,.5,3,1.4,3,1.4-1.5,1.2-7.1c-.4-8.1-1-8.9-7.3-8.9h-4.3v8ZM558.5,98.5c0,1.4-.8,2.1-2.7,2.3-2.4.3-2.8,0-2.8-2.3s.4-2.6,2.8-2.3c1.9.2,2.7.9,2.7,2.3Z"/>
  <path class="st0" d="M110.4,122.2c2.9,5.1,9.7,17.1,15.2,26.7,10.8,19.1,15.1,24.3,21.5,26.2l4.2,1.3-4.3,1.4c-2.3.8-5.9,3.1-7.9,5.1-2.7,2.8-31.8,51.9-34,57.4-.2.7,5.3.8,15.5.4,22.8-.9,18.7,3.1,46.7-45.7,5.5-9.6,10-17.9,10-18.5,0-1.3-28.7-51.9-32-56.3-4.6-6.1-8.3-7.2-25.2-7.2h-15l5.3,9.2Z"/>
  <path class="st1" d="M244,119.9c-28.5,1-29.3,1.9-37.5,46.5-3.8,20.8-3.2,26.9,2.8,30.9s15.8,3.7,24.8,3.7,8.2-1.3,8.3-7.5-3.3-9.6-10.4-10.3c-3.1-.3-5.4-1-5.7-1.8-.6-1.7,6.4-38.9,8-42.4,1.2-2.4,1.5-2.5,15-3,7.5-.3,13.7-.3,13.7-.1,0,.3-2.8,14.3-6.1,31.3-3.4,16.9-5.9,31.4-5.5,32.3.4,1.2,2.7,1.5,12.3,1.5s18.5-1.1,20.6-4.3c1.1-1.7,3.7-10.9,3.7-13.2s-2.7-.5-6-.5-6-.4-6-1.2,2.4-13.5,5.4-28.7,5.6-28.8,5.8-30.2c.7-4.1-2.4-4.3-43.2-3Z"/>
  <path class="st1" d="M406.5,121.2c-5.1,1.8-8.5,4.8-11,9.8-2.9,5.6-10.6,44-10.9,53.7-.1,7.3,1.8,10.7,8,13.8s5.9,2,27.2,2,25.2.2,25.2-6.7-.8-4.6-2.5-6.6l-2.4-2.9-16.1-.5c-8.9-.3-16.5-.9-17-1.4-.9-.9,6.1-39.9,7.9-44,.9-2.1,1.9-2.2,19.6-2.9,20.8-.8,21.5-1.1,23.5-8.4,2.1-7.6,3.9-7.1-23.7-7-14.8,0-26,.5-27.8,1.1Z"/>
  <path class="st1" d="M476.5,121.9c-4.4,2-9.1,6.9-11.1,11.6-1.9,4.6-9.5,45.7-9.5,52.1-.1,6.7,1.8,10,7.6,12.8,3.4,1.7,6.3,1.9,27.2,2,26.2.1,25.3.4,25.3-7.2s-.6-4.9-2.5-6.7c-2.3-2.4-3.1-2.5-13.7-2.5s-13.7-.3-16.5-.6c-4.5-.6-5.3-1-5.3-2.8s6.2-34,7.9-40.2l1.1-4.2,18.3-.7c12.8-.5,18.8-1.1,20.4-2.1,2.2-1.4,4.3-6.8,4.3-11.2v-2.2h-24.7c-21.9,0-25.3.3-28.8,1.9Z"/>
  <path class="st0" d="M242.6,218.2c-.9,1.2-1.6,2.8-1.6,3.5s-.4,1.3-1,1.3-.7,1.2-.4,2.7c.3,1.6.1,5.4-.4,8.6-.6,4-.6,5.7.2,5.4,1-.3,1.5-2.1,3-11,.4-2.3,1.2-3.7,2.1-3.7s1.5-.5,1.5-1-.4-1-1-1c-1.9,0-1-3.9,1.2-5.4l2.2-1.6h-2.1c-1.2,0-2.9,1-3.7,2.2Z"/>
  <path class="st0" d="M409.6,220.1c-.6,3.8-.8,4-3.5,3.4-1.9-.4-3.5,0-5.2,1.4-2,1.6-2.4,2.8-2.4,8.1s.4,6.5,1.7,7.4c1.3.8,2.3.8,3.7-.1,1.3-.8,2.1-.9,2.9-.1,1.5,1.5,1.6.9,4-13,1.5-8.5,1.6-11.2.7-11.2s-1.5,1.8-1.9,4.1ZM407.8,228c.2,1.4-.3,4.4-1,6.5-1.1,3.2-1.8,4-3.8,4s-2.6-.6-2.8-2.9c-.5-3.8.4-7.1,2.4-9.1,2.3-2.2,4.8-1.5,5.2,1.5Z"/>
  <path class="st0" d="M208.1,219.6c-1.2,1.5-2.1,3.3-2.1,4.1,0,1.5,4.3,6.1,7.4,7.8,2.6,1.5,1.2,6.3-2.2,7.2-1.9.4-3,.1-4.3-1.5-.9-1.2-2-2.2-2.3-2.2-1.3,0-.5,2.8,1.2,4.3,4.4,4,11.6.2,11-5.6-.2-2.4-1.2-3.8-4-5.6-2.5-1.6-3.8-3.2-3.8-4.6,0-4.4,5-6.2,7-2.5,1.2,2.3,3,2.7,3,.7s-3.4-4.7-6.3-4.7-3.3,1-4.6,2.6Z"/>
  <path class="st0" d="M354.5,219.2c-1.3,5.6-3.5,18.5-3.5,20.3q.1,2,1.5.1c.8-1.1,1.5-3.1,1.5-4.4,0-3.9,1.8-6.2,5-6.2,5.3,0,5.8.6,4.9,6.2-.9,5.3-.4,7.3,1,5,1.2-2,4.5-22.1,3.7-22.9-1-1.1-1.7.3-2.3,4.6-.7,5.1-2.1,6.3-7,5.9-4.1-.3-4.1-.5-2.9-7.3.8-3.9-1-5-1.9-1.3Z"/>
  <path class="st0" d="M252.3,221c-.3,1.1-1.2,2-1.9,2s-1.4.4-1.4,1,.5,1,1.1,1,.9,2.3.4,7.5c-.6,6.4-.5,7.6.9,8.1,2.2.8,3.5-.4,1.6-1.6-1.1-.7-1.2-1.9-.2-7.1.6-3.4,1.6-6.5,2.1-6.8,1.2-.8.2-6.1-1.1-6.1s-1.2.9-1.5,2Z"/>
  <path class="st0" d="M226.3,224c-3.1,1.2-4.3,4.1-4.3,9.9s.4,5.2,2.1,6.1c3.6,2,6.9.4,9-4.6,1.7-3.7,1.8-5,.9-7.9-1.4-4.3-3.4-5.2-7.7-3.5ZM230.8,226.2c1.7,1.7,1.5,8-.4,10.6-1,1.5-2.4,2.2-3.7,2-1.8-.2-2.3-1.1-2.5-4.6-.5-6.7,3.3-11.3,6.6-8Z"/>
  <path class="st0" d="M260.5,231.2c.4,4.6,1,8.6,1.4,9.1.4.4,2-2.1,3.6-5.5l2.8-6.3,1,5.7c.5,3.2,1.3,5.8,1.7,5.8.9,0,8.2-16.1,7.6-16.7-1-1.1-2.5.9-4.2,5.7-2.1,5.9-3.4,6.4-3.5,1.2,0-2-.4-4.6-.9-5.7-.6-1.7-1.2-1-3.8,4.4l-3.1,6.3-.7-6.1c-1-9.4-2.7-7.5-1.9,2.1Z"/>
  <path class="st0" d="M283.7,224.8c-2.5,2.8-2,3.3,1.2,1.4,3.2-1.8,3.5-1.7,4.5,1.5.6,1.8.2,2.2-2.6,2.8-6,1.3-9,6.5-5.4,9.4,1.8,1.5,8.2.5,8.9-1.3,1.4-3.7,1.9-12.7.7-14.1-1.7-2-5.3-1.9-7.3.3ZM289,233.9c0,2.5-2.8,5.3-4.9,4.9-2.2-.4-2.5-3.2-.6-5.2,2.3-2.3,5.5-2.1,5.5.3Z"/>
  <path class="st0" d="M297.7,225.9c-.3,1.5-.8,5.5-1.2,9.1-.7,7,.7,6.6,1.9-.5,1.1-6.5,1.6-7.6,4.2-8.5,3.5-1.4,2.9-2.8-1-2.7-2.8.1-3.5.5-3.9,2.6Z"/>
  <path class="st0" d="M309.1,225.6c-2.9,3.6-3.7,9.2-2,12.3s6.9,4,8.8,1.7c1.2-1.4.8-1.5-2.5-1.3-3.6.2-3.9,0-4.2-2.6s-.1-2.7,4.1-2.7,6.2-1.4,5.1-5.6c-1.2-4.8-6.2-5.7-9.3-1.8ZM315.5,228c0,1.9-.6,2.6-2.4,2.8-3.3.5-4.6-1.1-3.1-3.8,1.6-3,5.5-2.4,5.5,1Z"/>
  <path class="st0" d="M331.4,232.3c.5,9.5.5,9.9-2,12.4s-2.6,4,.1,2.9c1.5-.6,9.9-17.2,11.1-22.2,1.2-4.7-1.2-2.3-3.5,3.6-1.3,3.3-2.8,6-3.3,6s-.8-2.1-.8-4.8-.5-5.4-1.1-6.2c-.8-1.1-.9,1.2-.5,8.3Z"/>
  <path class="st0" d="M375.2,224.6c-1.2.8-2,2-1.6,2.5.4.6,1.3.4,2.5-.7,2.2-1.9,4.9-1.2,4.9,1.3s-1.4,2.3-4.2,3.3c-3.9,1.4-4.3,1.8-4.6,5.3-.4,4.3,1.5,5.6,5.3,3.9,1.8-.9,2.6-.8,3.2.1.4.7,1.3-1.8,1.9-5.8,1-5.8,1-7.4-.2-9.3-1.7-2.6-4.1-2.8-7.2-.6ZM380.2,234.5c-.5,2.8-2.8,4.9-4.6,4.2-2.1-.8-2-4.3.2-5.6,2.5-1.6,4.8-.8,4.4,1.4Z"/>
  <path class="st0" d="M389.5,224.5c-.2.5-.6,3-.9,5.5-.4,2.5-.9,6-1.2,7.7-.4,1.9-.2,3.3.4,3.3s1.3-1.7,1.6-3.8c1.5-8.1,2.7-11.1,4.6-11.7,1.1-.4,2-1,2-1.4,0-1.2-6.2-.8-6.5.4Z"/>
  <path class="st0" d="M415.4,229.1c.3,3.4.6,7.5.6,9,0,4.5,1.5,3.4,4.5-3.4l2.8-6.2.9,5.5c1,6.1,2.4,8.4,3.4,5.4.4-1,2-5,3.5-8.8,1.6-3.9,2.7-7.2,2.4-7.4-1-1.1-2.6,1.4-4.1,6.4-1.7,6-3.4,6.3-3.5.6,0-2-.4-4.6-.9-5.7-.7-1.7-1.3-1-3.8,4.5l-3,6.5-.7-6.3c-.4-3.4-1.2-6.2-1.8-6.2s-.8,2.2-.3,6.1Z"/>
  <path class="st0" d="M438.7,224.8c-2.3,2.6-2.1,3.9.2,1.8,2.5-2.3,5.5-1.7,5.9,1.1.3,1.7-.3,2.3-3,2.8-4.2.9-6.8,3.2-6.8,6s2.1,4.5,6.6,4.1l3.9-.4.8-7.1c.7-5.2.6-7.6-.3-8.6-1.7-2.1-5.4-1.9-7.3.3ZM444,233.9c0,2.3-2.5,5.1-4.6,5.1s-1.9-5.6-.1-6.3c2.8-1.2,4.7-.7,4.7,1.2Z"/>
  <path class="st0" d="M453.4,224.5c-.8,2.8-2.4,11.9-2.4,14.1,0,3.7,1.7,2.1,2.4-2.3,1.5-8.7,1.8-9.4,4.2-10.3,1.3-.5,2.4-1.3,2.4-1.8,0-1.2-6.2-.9-6.6.3Z"/>
  <path class="st0" d="M465.8,223.7c-3.5.9-5.6,12.4-2.9,15.7,1.6,2,6.4,2.1,8,.2.9-1.1.4-1.3-2.6-1.2-3.4.1-3.8-.2-4.1-2.7-.3-2.6-.2-2.7,4.2-2.7s4.6-.3,5.2-2.5c.4-1.6,0-3.4-1-5-1.6-2.4-3.1-2.8-6.8-1.8ZM471,228.1c0,2.8-.2,3-3.2,2.7-1.7-.2-3.3-.8-3.5-1.4-.5-1.6,2.5-4.4,4.8-4.4s1.9.7,1.9,3.1Z"/>
</svg>