<svg width="264" height="105" viewBox="0 0 264 105" fill="none" xmlns="http://www.w3.org/2000/svg">
<path d="M263.537 0.75L224.387 105H204.587L165.287 0.75L186 9L199.037 44.1L214.487 87.45L243 9L263.537 0.75Z" fill="#5399CB"/>
<path d="M112.125 14.55V45.15H140L148.125 59.1H112.125V91.05H148.125L152.625 105H95.0254V0.599976H152.625L145.5 14.55H112.125Z" fill="#5399CB"/>
<path d="M54.4 105L30.4 63.3H17.35V105H0.25C0.25 105 7 72.1655 7 50.55C7 31.4534 0.25 0.75 0.25 0.75H36.25C44.25 0.75 51 2.15 56.5 4.95C62.1 7.75 66.25 11.5 68.95 16.2C71.75 20.9 73.15 26.15 73.15 31.95C73.15 38.75 71.15 44.95 67.15 50.55C63.25 56.05 57.2 59.8 49 61.8L74.8 105H54.4ZM17.35 49.65H36.25C42.65 49.65 47.45 48.05 50.65 44.85C53.95 41.65 55.6 37.35 55.6 31.95C55.6 26.55 54 22.35 50.8 19.35C47.6 16.25 42.75 14.7 36.25 14.7H17.35V49.65Z" fill="#5399CB"/>
</svg>