<svg width="132" height="163" viewBox="0 0 132 163" fill="none" xmlns="http://www.w3.org/2000/svg">
<path d="M43.75 0.447021C41.5078 1.15842 37.0234 3.67564 35.3828 5.09841C34.0156 6.35703 25.5391 19.6545 24.7188 21.7887C24.5547 22.2812 22.4766 25.8929 20.125 29.8329C17.7734 33.7729 15.8594 37.1656 15.8594 37.3298C15.8594 37.494 14 40.7226 11.7578 44.4437C9.51563 48.2195 7.65625 51.3934 7.65625 51.5576C7.65625 51.7765 5.96094 54.7315 3.82813 58.2337C1.75 61.7359 0 64.8551 0 65.1834C0 65.5117 1.75 68.5762 3.82813 71.969C5.96094 75.4165 7.65625 78.3715 7.65625 78.5904C7.65625 78.8092 9.40625 81.9284 11.5391 85.5948C21.8203 103.106 24.4453 107.593 24.7734 108.469C25.5938 110.548 33.6328 123.298 34.9453 124.557C36.8047 126.253 40.5781 128.497 43.2031 129.427C45.7188 130.303 74.7031 130.576 74.5391 129.756C74.4844 129.427 72.6797 126.363 70.5469 122.861C68.4688 119.358 66.7188 116.349 66.7188 116.13C66.7188 115.966 64.8594 112.792 62.6172 109.016C60.375 105.295 58.5156 102.066 58.5156 101.902C58.5156 101.738 56.5469 98.2904 54.1406 94.2956C51.7344 90.2462 49.7656 86.7987 49.7656 86.6345C49.7656 85.6495 41.5625 72.7898 39.8125 71.0934C37.3516 68.6309 33.0313 66.2231 29.9688 65.6759C28.6563 65.457 28 65.1287 28.4375 64.9645C28.875 64.8004 30.625 64.2531 32.375 63.7059C37.4063 62.119 40.25 59.547 44.4063 52.7615C46.4297 49.4234 48.6719 45.6476 49.3828 44.2795C50.0391 42.9115 52.3906 38.862 54.5234 35.2504C60.9766 24.2512 64.6406 17.9034 66.4453 14.4559C67.4297 12.6501 69.6172 8.81953 71.3672 5.97397C73.0625 3.12841 74.5938 0.611191 74.7578 0.337585C75.0859 -0.154907 45.5 -0.100204 43.75 0.447021Z" fill="#5399CB"/>
<path d="M58.0234 35.0863C59.1719 37.3846 63.7109 45.3193 71.0938 57.9602C75.8516 66.1138 82.9063 78.4263 85.9141 83.8985C89.3594 90.0821 92.4766 93.3107 97.0156 95.4996C99.1484 96.5393 101.609 97.3602 102.539 97.3602C103.797 97.3602 104.016 97.5243 103.359 97.9074C102.922 98.181 102.047 98.4546 101.445 98.4546C100.844 98.4546 98.875 99.166 97.0156 100.042C92.3672 102.23 88.8125 106.17 84.7656 113.777C84 115.145 81.4844 119.468 79.1875 123.463C76.8359 127.403 74.9219 130.795 74.9219 130.96C74.9219 131.124 73.1719 134.134 71.0391 137.69C68.9063 141.247 66.9375 144.64 66.7188 145.242C66.5 145.899 64.8594 148.69 63.1094 151.535C60.2656 156.296 56.875 162.37 56.875 162.863C56.875 162.972 63.7109 163.027 72.0781 162.917L87.2266 162.753L90.2891 161.221C94.6641 159.087 98.1094 155.858 100.188 151.918C102.375 147.869 107.023 139.825 112.711 130.248C114.953 126.418 116.977 122.915 117.141 122.423C117.359 121.985 119.328 118.483 121.625 114.598C123.922 110.767 125.781 107.539 125.781 107.374C125.781 107.21 127.039 105.021 128.57 102.449L131.359 97.8527L128.57 93.256C127.039 90.7388 125.781 88.4952 125.781 88.331C125.781 88.1121 123.813 84.6646 121.406 80.6152C119 76.6204 117.031 73.2277 117.031 73.0635C117.031 72.9541 115.172 69.7254 112.93 65.8949C110.688 62.1191 108.828 58.8357 108.828 58.6716C108.828 58.5074 107.188 55.6618 105.164 52.3238C103.141 48.9857 101.063 45.2646 100.516 44.1154C99.2031 41.4341 96.1953 38.096 93.1875 36.0713C88.5938 33.0068 87.1719 32.7879 71.3125 32.7879H56.875L58.0234 35.0863Z" fill="#FCFDFA"/>
</svg>