<svg width="664" height="163" viewBox="0 0 664 163" fill="none" xmlns="http://www.w3.org/2000/svg">
<path d="M312.75 0.447021C310.508 1.15842 306.023 3.67564 304.383 5.09841C303.016 6.35703 294.539 19.6545 293.719 21.7887C293.555 22.2812 291.477 25.8929 289.125 29.8329C286.773 33.7729 284.859 37.1656 284.859 37.3298C284.859 37.494 283 40.7226 280.758 44.4437C278.516 48.2195 276.656 51.3934 276.656 51.5576C276.656 51.7765 274.961 54.7315 272.828 58.2337C270.75 61.7359 269 64.8551 269 65.1834C269 65.5117 270.75 68.5762 272.828 71.969C274.961 75.4165 276.656 78.3715 276.656 78.5904C276.656 78.8092 278.406 81.9284 280.539 85.5948C290.82 103.106 293.445 107.593 293.773 108.469C294.594 110.548 302.633 123.298 303.945 124.557C305.805 126.253 309.578 128.497 312.203 129.427C314.719 130.303 343.703 130.576 343.539 129.756C343.484 129.427 341.68 126.363 339.547 122.861C337.469 119.358 335.719 116.349 335.719 116.13C335.719 115.966 333.859 112.792 331.617 109.016C329.375 105.295 327.516 102.066 327.516 101.902C327.516 101.738 325.547 98.2904 323.141 94.2956C320.734 90.2462 318.766 86.7987 318.766 86.6345C318.766 85.6495 310.563 72.7898 308.813 71.0934C306.352 68.6309 302.031 66.2231 298.969 65.6759C297.656 65.457 297 65.1287 297.438 64.9645C297.875 64.8004 299.625 64.2531 301.375 63.7059C306.406 62.119 309.25 59.547 313.406 52.7615C315.43 49.4234 317.672 45.6476 318.383 44.2795C319.039 42.9115 321.391 38.862 323.523 35.2504C329.977 24.2512 333.641 17.9034 335.445 14.4559C336.43 12.6501 338.617 8.81953 340.367 5.97397C342.063 3.12841 343.594 0.611191 343.758 0.337585C344.086 -0.154907 314.5 -0.100204 312.75 0.447021Z" fill="#395886"/>
<path d="M327.023 35.0863C328.172 37.3846 332.711 45.3193 340.094 57.9602C344.852 66.1138 351.906 78.4263 354.914 83.8985C358.359 90.0821 361.477 93.3107 366.016 95.4996C368.148 96.5393 370.609 97.3602 371.539 97.3602C372.797 97.3602 373.016 97.5243 372.359 97.9074C371.922 98.181 371.047 98.4546 370.445 98.4546C369.844 98.4546 367.875 99.166 366.016 100.042C361.367 102.23 357.813 106.17 353.766 113.777C353 115.145 350.484 119.468 348.188 123.463C345.836 127.403 343.922 130.795 343.922 130.96C343.922 131.124 342.172 134.134 340.039 137.69C337.906 141.247 335.938 144.64 335.719 145.242C335.5 145.899 333.859 148.69 332.109 151.535C329.266 156.296 325.875 162.37 325.875 162.863C325.875 162.972 332.711 163.027 341.078 162.917L356.227 162.753L359.289 161.221C363.664 159.087 367.109 155.858 369.188 151.918C371.375 147.869 376.023 139.825 381.711 130.248C383.953 126.418 385.977 122.915 386.141 122.423C386.359 121.985 388.328 118.483 390.625 114.598C392.922 110.767 394.781 107.539 394.781 107.374C394.781 107.21 396.039 105.021 397.57 102.449L400.359 97.8527L397.57 93.256C396.039 90.7388 394.781 88.4952 394.781 88.331C394.781 88.1121 392.813 84.6646 390.406 80.6152C388 76.6204 386.031 73.2277 386.031 73.0635C386.031 72.9541 384.172 69.7254 381.93 65.8949C379.688 62.1191 377.828 58.8357 377.828 58.6716C377.828 58.5074 376.188 55.6618 374.164 52.3238C372.141 48.9857 370.063 45.2646 369.516 44.1154C368.203 41.4341 365.195 38.096 362.188 36.0713C357.594 33.0068 356.172 32.7879 340.313 32.7879H325.875L327.023 35.0863Z" fill="#FCFDFA"/>
<path d="M263.537 29.75L224.387 134H204.587L165.287 29.75L186 38L199.037 73.1L214.487 116.45L243 38L263.537 29.75Z" fill="#395886"/>
<path d="M112.125 43.55V74.15H140L148.125 88.1H112.125V120.05H148.125L152.625 134H95.0254V29.6H152.625L145.5 43.55H112.125Z" fill="#395886"/>
<path d="M54.4 134L30.4 92.3H17.35V134H0.25C0.25 134 0.25 101.166 0.25 79.55C0.25 60.4534 0.25 29.75 0.25 29.75H36.25C44.25 29.75 51 31.15 56.5 33.95C62.1 36.75 66.25 40.5 68.95 45.2C71.75 49.9 73.15 55.15 73.15 60.95C73.15 67.75 71.15 73.95 67.15 79.55C63.25 85.05 57.2 88.8 49 90.8L74.8 134H54.4ZM17.35 78.65H36.25C42.65 78.65 47.45 77.05 50.65 73.85C53.95 70.65 55.6 66.35 55.6 60.95C55.6 55.55 54 51.35 50.8 48.35C47.6 45.25 42.75 43.7 36.25 43.7H17.35V78.65Z" fill="#395886"/>
<path d="M561.88 81.65C561.88 71.45 564.23 62.3 568.93 54.2C573.73 46.1 580.18 39.8 588.28 35.3C596.48 30.7 605.43 28.4 615.13 28.4C626.23 28.4 636.08 31.15 644.68 36.65C653.38 42.05 659.68 49.75 663.58 59.75H643.03C640.33 54.25 636.58 50.15 631.78 47.45C626.98 44.75 621.43 43.4 615.13 43.4C608.23 43.4 602.08 44.95 596.68 48.05C591.28 51.15 587.03 55.6 583.93 61.4C580.93 67.2 579.43 73.95 579.43 81.65C579.43 89.35 580.93 96.1 583.93 101.9C587.03 107.7 591.28 112.2 596.68 115.4C602.08 118.5 608.23 120.05 615.13 120.05C621.43 120.05 626.98 118.7 631.78 116C636.58 113.3 640.33 109.2 643.03 103.7H663.58C659.68 113.7 653.38 121.4 644.68 126.8C636.08 132.2 626.23 134.9 615.13 134.9C605.33 134.9 596.38 132.65 588.28 128.15C580.18 123.55 573.73 117.2 568.93 109.1C564.23 101 561.88 91.85 561.88 81.65Z" fill="#395886"/>
<path d="M507.125 43.55V74.15H535L543.125 88.1H507.125V120.05H543.125L547.625 134H490.025V29.6H547.625L540.5 43.55H507.125Z" fill="#395886"/>
<path d="M471.6 29.75L467.5 43.7H443.85V134H426.75V43.7H403.5L398.85 29.75H471.6Z" fill="#395886"/>
</svg>