<svg width="266" height="107" viewBox="0 0 266 107" fill="none" xmlns="http://www.w3.org/2000/svg">
<path d="M163.88 53.65C163.88 43.45 166.23 34.3 170.93 26.2C175.73 18.1 182.18 11.8 190.28 7.30003C198.48 2.70003 207.43 0.400024 217.13 0.400024C228.23 0.400024 238.08 3.15003 246.68 8.65003C255.38 14.05 261.68 21.75 265.58 31.75H245.03C242.33 26.25 238.58 22.15 233.78 19.45C228.98 16.75 223.43 15.4 217.13 15.4C210.23 15.4 204.08 16.95 198.68 20.05C193.28 23.15 189.03 27.6 185.93 33.4C182.93 39.2 181.43 45.95 181.43 53.65C181.43 61.35 182.93 68.1 185.93 73.9C189.03 79.7 193.28 84.2 198.68 87.4C204.08 90.5 210.23 92.05 217.13 92.05C223.43 92.05 228.98 90.7 233.78 88C238.58 85.3 242.33 81.2 245.03 75.7H265.58C261.68 85.7 255.38 93.4 246.68 98.8C238.08 104.2 228.23 106.9 217.13 106.9C207.33 106.9 198.38 104.65 190.28 100.15C182.18 95.55 175.73 89.2 170.93 81.1C166.23 73 163.88 63.85 163.88 53.65Z" fill="#5399CB"/>
<path d="M109.125 15.55V46.15H137L145.125 60.1H109.125V92.05H145.125L149.625 106H92.0254V1.59998H149.625L142.5 15.55H109.125Z" fill="#5399CB"/>
<path d="M73.6 1.75L69.5 15.7H45.85V106H28.75V15.7H5.5L0.849976 1.75H73.6Z" fill="#5399CB"/>
</svg>